<svg width="32" height="32" viewBox="0 0 32 32" fill="none" xmlns="http://www.w3.org/2000/svg">
<circle cx="16" cy="16.0002" r="16" fill="#FAFAFC"/>
<path d="M19.3808 12.0667C19.4632 12.0667 19.5291 12.0996 19.5786 12.1656C19.6445 12.215 19.6775 12.281 19.6775 12.3634V14.3169C19.6775 14.3993 19.6445 14.4735 19.5786 14.5394C19.5291 14.5889 19.4632 14.6136 19.3808 14.6136H16.9328C16.8503 14.6136 16.8091 14.6548 16.8091 14.7372V24.4304C16.8091 24.5128 16.7762 24.587 16.7102 24.6529C16.6608 24.7024 16.5948 24.7271 16.5124 24.7271H14.2375C14.1551 24.7271 14.0809 24.7024 14.0149 24.6529C13.9655 24.587 13.9408 24.5128 13.9408 24.4304V14.7372C13.9408 14.6548 13.8995 14.6136 13.8171 14.6136H12.284C12.2016 14.6136 12.1274 14.5889 12.0615 14.5394C12.012 14.4735 11.9873 14.3993 11.9873 14.3169V12.3634C11.9873 12.281 12.012 12.215 12.0615 12.1656C12.1274 12.0996 12.2016 12.0667 12.284 12.0667H13.8171C13.8995 12.0667 13.9408 12.0255 13.9408 11.943V11.4979C13.9408 10.4264 14.0809 9.60218 14.3611 9.02521C14.6414 8.43175 15.1029 8.01138 15.7459 7.76411C16.3888 7.51684 17.2954 7.40144 18.4659 7.41793H19.3313C19.4137 7.41793 19.4797 7.4509 19.5291 7.51684C19.5951 7.56629 19.628 7.63223 19.628 7.71466V9.44557C19.628 9.528 19.5951 9.60218 19.5291 9.66812C19.4797 9.71757 19.4137 9.7423 19.3313 9.7423H18.6884C17.9795 9.7423 17.485 9.88242 17.2048 10.1627C16.941 10.4429 16.8091 10.9539 16.8091 11.6958V11.943C16.8091 12.0255 16.8503 12.0667 16.9328 12.0667H19.3808Z" fill="#42454A"/>
</svg>
