<svg width="32" height="32" viewBox="0 0 32 32" fill="none" xmlns="http://www.w3.org/2000/svg">
<circle cx="16" cy="16" r="16" fill="#FAFAFC"/>
<path d="M21.7882 8.1449H10.1354C8.81977 8.1449 7.81738 9.14729 7.81738 10.4629V22.1157C7.81738 23.4313 8.81977 24.4337 10.1354 24.4337H21.7882C23.1038 24.4337 24.1062 23.4313 24.1062 22.1157V10.4629C24.1062 9.14729 23.1038 8.1449 21.7882 8.1449ZM15.9618 21.176C18.6557 21.176 20.8485 19.0459 20.8485 16.4773C20.8485 16.3057 20.8389 16.1246 20.8197 15.9451C20.7778 15.5533 21.0674 15.1616 21.4615 15.1616C21.7803 15.1616 22.0388 15.4201 22.0388 15.7389V21.8025C22.0388 22.1157 21.7882 22.429 21.4123 22.429H10.5113C10.1981 22.429 9.88481 22.1784 9.88481 21.8025V15.7185C9.88481 15.3764 10.1622 15.099 10.5044 15.099C10.916 15.099 11.2115 15.4946 11.1661 15.9037C11.1472 16.074 11.1378 16.2443 11.1378 16.4146C11.0752 19.0459 13.2679 21.176 15.9618 21.176ZM15.9618 19.2965C14.2076 19.2965 12.8293 17.9182 12.8293 16.2267C12.8293 14.5351 14.2076 13.1568 15.9618 13.1568C17.716 13.1568 19.0943 14.5351 19.0943 16.2267C19.0943 17.9809 17.716 19.2965 15.9618 19.2965ZM21.9761 12.593C21.9761 12.9689 21.6629 13.2821 21.287 13.2821H19.5328C19.1569 13.2821 18.8437 12.9689 18.8437 12.593V10.9015C18.8437 10.5256 19.1569 10.2123 19.5328 10.2123H21.287C21.6629 10.2123 21.9761 10.5256 21.9761 10.9015V12.593Z" fill="#42454A"/>
</svg>
